<svg width="14" height="14" viewBox="0 0 14 14" fill="none" xmlns="http://www.w3.org/2000/svg">
<g clip-path="url(#clip0_2339_52)">
<path d="M4.00269 4.52085C3.35269 3.9572 2.39904 4.05656 1.89019 4.7502C1.80847 4.86163 1.70911 4.99256 1.57726 5.15785C1.20091 5.63226 0.996397 6.22018 0.997072 6.82575C0.997747 7.43131 1.20357 8.01877 1.58097 8.49235C2.75349 9.9493 4.07973 11.2755 5.53669 12.4481C6.01025 12.8251 6.59751 13.0307 7.20282 13.0313C7.80814 13.032 8.39585 12.8277 8.87026 12.4518C9.05504 12.3041 9.19618 12.1983 9.31597 12.1119C9.4743 12.0004 9.60737 11.8567 9.70652 11.6903C9.80568 11.5239 9.86869 11.3385 9.89146 11.1462C9.91423 10.9538 9.89626 10.7589 9.8387 10.5739C9.78115 10.389 9.6853 10.2182 9.5574 10.0728C9.29368 9.76635 9.01419 9.47106 8.7384 9.18135C8.38183 8.80528 7.7699 8.76349 7.37711 9.10335C7.30469 9.16556 7.21183 9.25006 7.07997 9.37356C5.97219 8.71613 5.30083 8.03642 4.65454 6.94999C4.78083 6.81442 4.86626 6.7197 4.92847 6.64728C5.09033 6.45364 5.1722 6.20553 5.15736 5.95358C5.14252 5.70164 5.03209 5.46486 4.84861 5.29156C4.57129 5.0296 4.28927 4.77265 4.00269 4.52085Z" fill="#E53267"/>
<path d="M13.0033 3.44545H10.4516C10.4253 3.44545 10.3993 3.44025 10.375 3.43016C10.3507 3.42007 10.3287 3.40528 10.3101 3.38664C10.2916 3.36801 10.2769 3.34589 10.2669 3.32156C10.2569 3.29723 10.2518 3.27117 10.252 3.24487C10.2522 3.19648 10.2697 3.14975 10.3012 3.11302L12.1212 1.03302C12.139 1.01259 12.1609 0.99621 12.1856 0.984997C12.2103 0.973783 12.2371 0.967993 12.2642 0.968018C12.3682 0.968018 12.4536 1.05345 12.4536 1.15745V4.27095" stroke="#E53267" stroke-linecap="round" stroke-linejoin="round"/>
<path d="M8.71878 4.27002H6.51807V3.80109C6.51821 3.64076 6.565 3.48394 6.65271 3.34973C6.74042 3.21552 6.86528 3.10973 7.01207 3.04523L8.23778 2.50945C8.40739 2.4356 8.54635 2.30554 8.63124 2.14118C8.71613 1.97682 8.74175 1.78822 8.7038 1.60717C8.66584 1.42612 8.56663 1.26369 8.42287 1.14726C8.27912 1.03084 8.09962 0.967531 7.91464 0.96802H7.34357C7.17288 0.968209 7.00643 1.02124 6.8671 1.11984C6.72777 1.21844 6.62238 1.35776 6.56542 1.51866" stroke="#E53267" stroke-linecap="round" stroke-linejoin="round"/>
<path d="M4.00269 4.52085C3.35269 3.9572 2.39904 4.05656 1.89019 4.7502C1.80847 4.86163 1.70911 4.99256 1.57726 5.15785C1.20091 5.63226 0.996397 6.22018 0.997072 6.82575C0.997747 7.43131 1.20357 8.01877 1.58097 8.49235C2.75349 9.9493 4.07973 11.2755 5.53669 12.4481C6.01025 12.8251 6.59751 13.0307 7.20282 13.0313C7.80814 13.032 8.39585 12.8277 8.87026 12.4518C9.05504 12.3041 9.19618 12.1983 9.31597 12.1119C9.4743 12.0004 9.60737 11.8567 9.70652 11.6903C9.80568 11.5239 9.86869 11.3385 9.89146 11.1462C9.91423 10.9538 9.89626 10.7589 9.8387 10.5739C9.78115 10.389 9.6853 10.2182 9.5574 10.0728C9.29368 9.76635 9.01419 9.47106 8.7384 9.18135C8.38183 8.80528 7.7699 8.76349 7.37711 9.10335C7.30469 9.16556 7.21183 9.25006 7.07997 9.37356C5.97219 8.71613 5.30083 8.03642 4.65454 6.94999C4.78083 6.81442 4.86626 6.7197 4.92847 6.64728C5.09033 6.45364 5.1722 6.20553 5.15736 5.95358C5.14252 5.70164 5.03209 5.46486 4.84861 5.29156C4.57129 5.0296 4.28927 4.77265 4.00269 4.52085Z" stroke="#E53267" stroke-linecap="round" stroke-linejoin="round"/>
</g>
<defs>
<clipPath id="clip0_2339_52">
<rect width="14" height="14" fill="white"/>
</clipPath>
</defs>
</svg>
