<svg width="14" height="14" viewBox="0 0 14 14" fill="none" xmlns="http://www.w3.org/2000/svg">
<path d="M9.14046 1.79639H4.85975L3.79653 3.72132L3.16975 3.77517C2.73636 3.81364 2.32841 3.99642 2.01123 4.29424C1.69404 4.59206 1.48597 4.9877 1.42032 5.41782C1.30239 6.21639 1.19653 7.0391 1.19653 7.87946C1.19653 8.71982 1.30239 9.54253 1.42032 10.342C1.55032 11.2242 2.28203 11.9076 3.16975 11.9847C4.44375 12.0942 5.72053 12.2038 7.0001 12.2038C8.27968 12.2038 9.55646 12.0942 10.8305 11.9847C11.264 11.9462 11.672 11.7633 11.9892 11.4652C12.3064 11.1672 12.5144 10.7714 12.5799 10.3411C12.6978 9.54253 12.8037 8.71982 12.8037 7.88039C12.8037 7.0391 12.6978 6.21639 12.5799 5.41782C12.5144 4.98754 12.3064 4.59168 11.9892 4.29367C11.672 3.99567 11.264 3.81275 10.8305 3.77424L10.2037 3.72132L9.14046 1.79639Z" fill="#E53267"/>
<path d="M9.14046 1.79639H4.85975L3.79653 3.72132L3.16975 3.77517C2.73636 3.81364 2.32841 3.99642 2.01123 4.29424C1.69404 4.59206 1.48597 4.9877 1.42032 5.41782C1.30239 6.21639 1.19653 7.0391 1.19653 7.87946C1.19653 8.71982 1.30239 9.54253 1.42032 10.342C1.55032 11.2242 2.28203 11.9076 3.16975 11.9847C4.44375 12.0942 5.72053 12.2038 7.0001 12.2038C8.27968 12.2038 9.55646 12.0942 10.8305 11.9847C11.264 11.9462 11.672 11.7633 11.9892 11.4652C12.3064 11.1672 12.5144 10.7714 12.5799 10.3411C12.6978 9.54253 12.8037 8.71982 12.8037 7.88039C12.8037 7.0391 12.6978 6.21639 12.5799 5.41782C12.5144 4.98754 12.3064 4.59168 11.9892 4.29367C11.672 3.99567 11.264 3.81275 10.8305 3.77424L10.2037 3.72132L9.14046 1.79639Z" stroke="#E53267" stroke-linecap="round" stroke-linejoin="round"/>
<path d="M7.00017 9.69493C8.33732 9.69493 9.08946 8.94279 9.08946 7.60564C9.08946 6.2685 8.33732 5.51636 7.00017 5.51636C5.66303 5.51636 4.91089 6.2685 4.91089 7.60564C4.91089 8.94279 5.66303 9.69493 7.00017 9.69493Z" fill="white"/>
<path d="M7.00017 9.69493C8.33732 9.69493 9.08946 8.94279 9.08946 7.60564C9.08946 6.2685 8.33732 5.51636 7.00017 5.51636C5.66303 5.51636 4.91089 6.2685 4.91089 7.60564C4.91089 8.94279 5.66303 9.69493 7.00017 9.69493Z" stroke="#E53267" stroke-linecap="round" stroke-linejoin="round"/>
</svg>
