<svg width="14" height="14" viewBox="0 0 14 14" fill="none" xmlns="http://www.w3.org/2000/svg">
<g clip-path="url(#clip0_2339_65)">
<path d="M12.1072 6.71121L7.69653 10.445V2.02935C8.0531 1.79951 8.47761 1.69867 8.89945 1.74361C9.32129 1.78854 9.71503 1.97655 10.0152 2.27635L11.9865 4.24492C12.669 4.9265 12.709 5.98414 12.1072 6.71121Z" fill="white"/>
<path d="M1.19653 7.92871V10.9466C1.19653 11.4391 1.3922 11.9115 1.74048 12.2598C2.08876 12.608 2.56113 12.8037 3.05368 12.8037H5.83939C6.33194 12.8037 6.80431 12.608 7.15259 12.2598C7.50087 11.9115 7.69653 11.4391 7.69653 10.9466V7.92871H1.19653Z" fill="white"/>
<path fill-rule="evenodd" clip-rule="evenodd" d="M4.91089 12.8038H10.9466C11.4391 12.8038 11.9115 12.6081 12.2598 12.2598C12.6081 11.9116 12.8037 11.4392 12.8037 10.9466V8.16093C12.8037 7.57407 12.5317 7.05128 12.1073 6.71143L7.6966 10.4452V10.9466C7.6966 11.4392 7.50094 11.9116 7.15266 12.2598C6.80438 12.6081 6.33201 12.8038 5.83946 12.8038H4.91089Z" fill="#E53267"/>
<path fill-rule="evenodd" clip-rule="evenodd" d="M1.19653 3.05368V7.92868H7.69653V3.05368C7.69653 2.56113 7.50087 2.08876 7.15259 1.74048C6.80431 1.3922 6.33194 1.19653 5.83939 1.19653H3.05368C2.56113 1.19653 2.08876 1.3922 1.74048 1.74048C1.3922 2.08876 1.19653 2.56113 1.19653 3.05368Z" fill="#E53267"/>
<path d="M1.19653 10.9465V3.05368C1.19653 2.56113 1.3922 2.08876 1.74048 1.74048C2.08876 1.3922 2.56113 1.19653 3.05368 1.19653H5.83939C6.33194 1.19653 6.80431 1.3922 7.15259 1.74048C7.50087 2.08876 7.69653 2.56113 7.69653 3.05368V10.9465C7.69653 11.4391 7.50087 11.9115 7.15259 12.2597C6.80431 12.608 6.33194 12.8037 5.83939 12.8037H3.05368C2.56113 12.8037 2.08876 12.608 1.74048 12.2597C1.3922 11.9115 1.19653 11.4391 1.19653 10.9465Z" stroke="#E53267" stroke-linecap="round" stroke-linejoin="round"/>
<path d="M1.19653 7.92871V10.9466C1.19653 11.4391 1.3922 11.9115 1.74048 12.2598C2.08876 12.608 2.56113 12.8037 3.05368 12.8037H5.83939C6.33194 12.8037 6.80431 12.608 7.15259 12.2598C7.50087 11.9115 7.69653 11.4391 7.69653 10.9466V7.92871H1.19653Z" stroke="#E53267" stroke-linecap="round" stroke-linejoin="round"/>
<path d="M1.42871 7.92871H7.46443" stroke="#E53267" stroke-linecap="round" stroke-linejoin="round"/>
<path d="M1.42871 4.67871H7.46443" stroke="#E53267" stroke-linecap="round" stroke-linejoin="round"/>
<path d="M4.44653 10.2817V10.4507" stroke="#E53267" stroke-linecap="round" stroke-linejoin="round"/>
<path d="M4.91089 12.8037H10.9466C11.4391 12.8037 11.9115 12.6081 12.2598 12.2598C12.6081 11.9115 12.8037 11.4391 12.8037 10.9466V8.16088C12.8037 7.57402 12.5317 7.05123 12.1073 6.71045" stroke="#E53267" stroke-linecap="round" stroke-linejoin="round"/>
<path d="M11.9884 6.87L7.68164 11.1851C7.69093 11.1071 7.6965 11.0272 7.6965 10.9464V2.02935C8.05306 1.79951 8.47758 1.69867 8.89942 1.74361C9.32126 1.78854 9.715 1.97655 10.0151 2.27635L11.9865 4.24492C12.3349 4.59294 12.5308 5.06509 12.5312 5.55754C12.5315 6.04999 12.3363 6.52148 11.9884 6.87Z" stroke="#E53267" stroke-linecap="round" stroke-linejoin="round"/>
</g>
<defs>
<clipPath id="clip0_2339_65">
<rect width="14" height="14" fill="white"/>
</clipPath>
</defs>
</svg>
