<svg width="14" height="14" viewBox="0 0 14 14" fill="none" xmlns="http://www.w3.org/2000/svg">
<g clip-path="url(#clip0_2339_88)">
<path d="M2.19662 4.18821L4.79197 6.27656C4.90009 6.36359 4.98733 6.47374 5.04726 6.59892C5.1072 6.72411 5.13831 6.86113 5.13831 6.99992C5.13831 7.13871 5.1072 7.27574 5.04726 7.40092C4.98733 7.5261 4.90009 7.63625 4.79197 7.72328L2.19662 9.81163C1.86697 10.0763 1.48812 10.0837 1.39805 9.67049C1.12969 8.45313 1.12969 5.54763 1.39805 4.32935C1.48812 3.91613 1.86697 3.92263 2.19662 4.18821Z" fill="#E53267"/>
<path d="M11.7749 4.18821L9.17959 6.27656C9.07147 6.36359 8.98423 6.47374 8.9243 6.59892C8.86436 6.72411 8.83325 6.86113 8.83325 6.99992C8.83325 7.13871 8.86436 7.27574 8.9243 7.40092C8.98423 7.5261 9.07147 7.63625 9.17959 7.72328L11.7749 9.81163C12.1046 10.0763 12.4834 10.0837 12.5735 9.67049C12.8419 8.45313 12.8419 5.54763 12.5735 4.32935C12.4834 3.91613 12.1046 3.92263 11.7749 4.18821Z" fill="#E53267"/>
<path d="M6.97144 1.2251V2.15367" stroke="#E53267" stroke-linecap="round" stroke-linejoin="round"/>
<path d="M6.97144 4.77515V5.70372" stroke="#E53267" stroke-linecap="round" stroke-linejoin="round"/>
<path d="M2.19662 4.18821L4.79197 6.27656C4.90009 6.36359 4.98733 6.47374 5.04726 6.59892C5.1072 6.72411 5.13831 6.86113 5.13831 6.99992C5.13831 7.13871 5.1072 7.27574 5.04726 7.40092C4.98733 7.5261 4.90009 7.63625 4.79197 7.72328L2.19662 9.81163C1.86697 10.0763 1.48812 10.0837 1.39805 9.67049C1.12969 8.45313 1.12969 5.54763 1.39805 4.32935C1.48812 3.91613 1.86697 3.92263 2.19662 4.18821Z" stroke="#E53267" stroke-linecap="round" stroke-linejoin="round"/>
<path d="M11.7749 4.18821L9.17959 6.27656C9.07147 6.36359 8.98423 6.47374 8.9243 6.59892C8.86436 6.72411 8.83325 6.86113 8.83325 6.99992C8.83325 7.13871 8.86436 7.27574 8.9243 7.40092C8.98423 7.5261 9.07147 7.63625 9.17959 7.72328L11.7749 9.81163C12.1046 10.0763 12.4834 10.0837 12.5735 9.67049C12.8419 8.45313 12.8419 5.54763 12.5735 4.32935C12.4834 3.91613 12.1046 3.92263 11.7749 4.18821Z" stroke="#E53267" stroke-linecap="round" stroke-linejoin="round"/>
<path d="M6.97144 8.32495V9.25352" stroke="#E53267" stroke-linecap="round" stroke-linejoin="round"/>
<path d="M6.97144 11.875V12.8036" stroke="#E53267" stroke-linecap="round" stroke-linejoin="round"/>
</g>
<defs>
<clipPath id="clip0_2339_88">
<rect width="14" height="14" fill="white"/>
</clipPath>
</defs>
</svg>
