<svg width="14" height="14" viewBox="0 0 14 14" fill="none" xmlns="http://www.w3.org/2000/svg">
<g clip-path="url(#clip0_2339_130)">
<path d="M1.39153 10.0347C1.46527 10.6879 1.75814 11.2969 2.22239 11.7623C2.68663 12.2277 3.29486 12.5221 3.94789 12.5975C4.94146 12.709 5.9601 12.8037 7.0001 12.8037C8.0401 12.8037 9.05968 12.709 10.0523 12.5975C10.7054 12.5221 11.3136 12.2277 11.7778 11.7623C12.2421 11.2969 12.5349 10.6879 12.6087 10.0347C12.7145 9.04761 12.8037 8.0336 12.8037 7.0001C12.8037 5.9666 12.7145 4.9526 12.6087 3.9646C12.5349 3.31138 12.2421 2.70241 11.7778 2.23698C11.3136 1.77156 10.7054 1.47715 10.0523 1.40175C9.05875 1.29218 8.0401 1.19653 7.0001 1.19653C5.9601 1.19653 4.94053 1.29125 3.94789 1.40268C3.29486 1.47808 2.68663 1.77249 2.22239 2.23791C1.75814 2.70334 1.46527 3.31231 1.39153 3.96553C1.28568 4.95168 1.19653 5.96568 1.19653 7.0001C1.19653 8.03453 1.28568 9.04761 1.39153 10.0347Z" fill="#E53267"/>
<path d="M1.19653 10.3318V10.2027C2.0406 9.11625 2.67482 8.49968 3.72968 7.76518C4.27475 7.3854 4.99625 7.3529 5.54503 7.72618C7.36503 8.9649 8.89346 10.8685 9.86939 12.7061V12.8844C8.88696 12.9726 7.87853 13.0469 6.85153 13.0469C4.99903 13.0469 1.46768 12.6049 1.19653 10.3318Z" fill="white"/>
<path d="M1.37378 9.97704C2.13335 9.02804 2.74992 8.44676 3.72956 7.76518C4.27556 7.3854 4.99614 7.3529 5.54492 7.72618C7.33428 8.94447 8.84135 10.8053 9.81914 12.6133" stroke="#E53267" stroke-linecap="round" stroke-linejoin="round"/>
<path d="M1.39153 10.0347C1.46527 10.6879 1.75814 11.2969 2.22239 11.7623C2.68663 12.2277 3.29486 12.5221 3.94789 12.5975C4.94146 12.709 5.9601 12.8037 7.0001 12.8037C8.0401 12.8037 9.05968 12.709 10.0523 12.5975C10.7054 12.5221 11.3136 12.2277 11.7778 11.7623C12.2421 11.2969 12.5349 10.6879 12.6087 10.0347C12.7145 9.04761 12.8037 8.0336 12.8037 7.0001C12.8037 5.9666 12.7145 4.9526 12.6087 3.9646C12.5349 3.31138 12.2421 2.70241 11.7778 2.23698C11.3136 1.77156 10.7054 1.47715 10.0523 1.40175C9.05875 1.29218 8.0401 1.19653 7.0001 1.19653C5.9601 1.19653 4.94053 1.29125 3.94789 1.40268C3.29486 1.47808 2.68663 1.77249 2.22239 2.23791C1.75814 2.70334 1.46527 3.31231 1.39153 3.96553C1.28568 4.95168 1.19653 5.96568 1.19653 7.0001C1.19653 8.03453 1.28568 9.04761 1.39153 10.0347Z" stroke="#E53267" stroke-linecap="round" stroke-linejoin="round"/>
<path d="M8.85718 6.76807C9.89718 6.76807 10.4822 6.18307 10.4822 5.14307C10.4822 4.10307 9.89718 3.51807 8.85718 3.51807C7.81718 3.51807 7.23218 4.10307 7.23218 5.14307C7.23218 6.18307 7.81718 6.76807 8.85718 6.76807Z" fill="white"/>
<path d="M8.85718 6.76807C9.89718 6.76807 10.4822 6.18307 10.4822 5.14307C10.4822 4.10307 9.89718 3.51807 8.85718 3.51807C7.81718 3.51807 7.23218 4.10307 7.23218 5.14307C7.23218 6.18307 7.81718 6.76807 8.85718 6.76807Z" stroke="#E53267" stroke-linecap="round" stroke-linejoin="round"/>
</g>
<defs>
<clipPath id="clip0_2339_130">
<rect width="14" height="14" fill="white"/>
</clipPath>
</defs>
</svg>
