<svg width="14" height="14" viewBox="0 0 14 14" fill="none" xmlns="http://www.w3.org/2000/svg">
<g clip-path="url(#clip0_2339_152)">
<path d="M1.64479 3.3665C1.04679 3.72493 1.04772 4.24122 1.642 4.6015C2.227 4.95436 2.838 5.3165 3.53443 5.65079C4.23086 5.98507 4.98486 6.27757 5.72215 6.558C6.4715 6.844 7.54865 6.844 8.29522 6.55707C9.026 6.27572 9.77165 5.98322 10.4653 5.65079C11.1112 5.33381 11.7418 4.98645 12.3549 4.60986C12.9529 4.25143 12.9529 3.73422 12.3577 3.37486C11.7443 2.99455 11.1128 2.64437 10.4653 2.32557C9.76886 1.99129 9.01486 1.69879 8.27758 1.41743C7.52822 1.13236 6.45107 1.13236 5.7045 1.41929C4.97372 1.69972 4.22808 1.99314 3.53443 2.32557C2.84172 2.658 2.22979 3.01643 1.64479 3.3665Z" fill="#E53267"/>
<path d="M1.64479 3.3665C1.04679 3.72493 1.04772 4.24122 1.642 4.6015C2.227 4.95436 2.838 5.3165 3.53443 5.65079C4.23086 5.98507 4.98486 6.27757 5.72215 6.558C6.4715 6.844 7.54865 6.844 8.29522 6.55707C9.026 6.27572 9.77165 5.98322 10.4653 5.65079C11.1112 5.33381 11.7418 4.98645 12.3549 4.60986C12.9529 4.25143 12.9529 3.73422 12.3577 3.37486C11.7443 2.99455 11.1128 2.64437 10.4653 2.32557C9.76886 1.99129 9.01486 1.69879 8.27758 1.41743C7.52822 1.13236 6.45107 1.13236 5.7045 1.41929C4.97372 1.69972 4.22808 1.99314 3.53443 2.32557C2.84172 2.658 2.22979 3.01643 1.64479 3.3665Z" stroke="#E53267" stroke-linecap="round" stroke-linejoin="round"/>
<path d="M12.8035 7.73809C12.1371 8.11543 11.4539 8.46246 10.756 8.77809C10.0039 9.11145 9.19603 9.40488 8.40396 9.68531C7.59517 9.97224 6.42796 9.97224 5.61546 9.68624C4.81689 9.40581 3.99975 9.11331 3.24482 8.77902C2.48989 8.44474 1.82782 8.08259 1.1936 7.72974" stroke="#E53267" stroke-linecap="round" stroke-linejoin="round"/>
<path d="M12.8035 10.6399C12.1693 10.99 11.5072 11.3475 10.756 11.6799C10.0039 12.0133 9.19603 12.3067 8.40396 12.5871C7.59517 12.874 6.42796 12.874 5.61546 12.589C4.81689 12.3076 3.99975 12.0151 3.24482 11.6808C2.48989 11.3465 1.82782 10.9835 1.1936 10.6306" stroke="#E53267" stroke-linecap="round" stroke-linejoin="round"/>
</g>
<defs>
<clipPath id="clip0_2339_152">
<rect width="14" height="14" fill="white"/>
</clipPath>
</defs>
</svg>
