<svg width="14" height="14" viewBox="0 0 14 14" fill="none" xmlns="http://www.w3.org/2000/svg">
<g clip-path="url(#clip0_2339_144)">
<path d="M2.08329 10.291L1.02471 12.3599C0.988485 12.4306 0.971007 12.5094 0.973952 12.5888C0.976897 12.6682 1.00017 12.7455 1.04154 12.8134C1.08291 12.8812 1.14099 12.9373 1.21023 12.9762C1.27947 13.0152 1.35755 13.0357 1.437 13.0359H12.5566C12.6364 13.0358 12.7148 13.0152 12.7843 12.976C12.8537 12.9369 12.912 12.8804 12.9533 12.8122C12.9946 12.744 13.0177 12.6663 13.0203 12.5866C13.0229 12.5069 13.0048 12.4278 12.968 12.3571L11.8881 10.2855C11.8096 10.1348 11.6913 10.0086 11.5461 9.92052C11.4009 9.83243 11.2343 9.78587 11.0644 9.78589H2.90971C2.73882 9.78589 2.57123 9.83304 2.42542 9.92217C2.2796 10.0113 2.16121 10.1389 2.08329 10.291Z" fill="white"/>
<path d="M7.05389 0.964355H6.94525C5.85052 0.964394 4.79645 1.37919 3.99528 2.12522C3.19412 2.87125 2.70535 3.89312 2.62739 4.98507C2.54753 6.08914 2.79732 7.209 3.46775 8.08928C4.30532 9.18964 5.15682 9.95107 6.50139 10.8527C6.64882 10.9513 6.8222 11.004 6.99957 11.004C7.17694 11.004 7.35032 10.9513 7.49775 10.8527C8.84325 9.952 9.69382 9.19057 10.5323 8.08928C11.2027 7.209 11.4516 6.08914 11.3727 4.98507C11.2947 3.89312 10.8059 2.87125 10.0048 2.12522C9.20361 1.37919 8.14862 0.964394 7.05389 0.964355Z" fill="#E53267"/>
<path d="M11.0022 9.78589H11.0644C11.2342 9.78587 11.4008 9.83243 11.546 9.92052C11.6913 10.0086 11.8096 10.1348 11.888 10.2855L12.968 12.3562C13.005 12.4269 13.0232 12.5061 13.0207 12.5859C13.0183 12.6658 12.9952 12.7436 12.9539 12.812C12.9125 12.8803 12.8542 12.9369 12.7846 12.9761C12.715 13.0153 12.6365 13.0359 12.5566 13.0359H1.43695C1.35742 13.0359 1.27923 13.0155 1.20986 12.9766C1.14049 12.9377 1.08228 12.8816 1.0408 12.8138C0.999325 12.7459 0.975972 12.6685 0.972984 12.5891C0.969996 12.5096 0.987472 12.4307 1.02374 12.3599L2.08231 10.291C2.16038 10.1387 2.27906 10.0108 2.42524 9.92169C2.57141 9.83254 2.73938 9.78554 2.91059 9.78589H2.97095" stroke="#E53267" stroke-linecap="round" stroke-linejoin="round"/>
<path d="M7.05389 0.964355H6.94525C5.85052 0.964394 4.79645 1.37919 3.99528 2.12522C3.19412 2.87125 2.70535 3.89312 2.62739 4.98507C2.54753 6.08914 2.79732 7.209 3.46775 8.08928C4.30532 9.18964 5.15682 9.95107 6.50139 10.8527C6.64882 10.9513 6.8222 11.004 6.99957 11.004C7.17694 11.004 7.35032 10.9513 7.49775 10.8527C8.84325 9.952 9.69382 9.19057 10.5323 8.08928C11.2027 7.209 11.4516 6.08914 11.3727 4.98507C11.2947 3.89312 10.8059 2.87125 10.0048 2.12522C9.20361 1.37919 8.14862 0.964394 7.05389 0.964355Z" stroke="#E53267" stroke-linecap="round" stroke-linejoin="round"/>
<path d="M7.00003 6.53571C7.89146 6.53571 8.39289 6.03429 8.39289 5.14286C8.39289 4.25143 7.89146 3.75 7.00003 3.75C6.10861 3.75 5.60718 4.25143 5.60718 5.14286C5.60718 6.03429 6.10861 6.53571 7.00003 6.53571Z" fill="white"/>
<path d="M7.00003 6.53571C7.89146 6.53571 8.39289 6.03429 8.39289 5.14286C8.39289 4.25143 7.89146 3.75 7.00003 3.75C6.10861 3.75 5.60718 4.25143 5.60718 5.14286C5.60718 6.03429 6.10861 6.53571 7.00003 6.53571Z" stroke="#E53267" stroke-linecap="round" stroke-linejoin="round"/>
</g>
<defs>
<clipPath id="clip0_2339_144">
<rect width="14" height="14" fill="white"/>
</clipPath>
</defs>
</svg>
