<svg width="14" height="14" viewBox="0 0 14 14" fill="none" xmlns="http://www.w3.org/2000/svg">
<path d="M1.45839 10.2844C1.51394 10.7176 1.71387 11.1195 2.02589 11.4251C2.33791 11.7307 2.74383 11.9223 3.1781 11.9688C4.41218 12.0988 5.68989 12.2344 7.0001 12.2344C8.30939 12.2344 9.58803 12.0979 10.8221 11.9688C11.2565 11.9226 11.6626 11.7311 11.9747 11.4254C12.2868 11.1198 12.4866 10.7177 12.5418 10.2844C12.6737 9.2221 12.8037 8.12453 12.8037 7.00003C12.8037 5.87646 12.6737 4.77796 12.5418 3.71567C12.4865 3.28229 12.2866 2.88022 11.9746 2.57441C11.6625 2.2686 11.2565 2.07692 10.8221 2.03032C9.58803 1.90217 8.30939 1.7666 7.0001 1.7666C5.69082 1.7666 4.41218 1.9031 3.1781 2.03217C2.74371 2.07841 2.33762 2.26986 2.02553 2.57554C1.71345 2.88122 1.51363 3.28326 1.45839 3.7166C1.32653 4.77796 1.19653 5.87646 1.19653 7.00003C1.19653 8.1236 1.32653 9.2221 1.45839 10.2844Z" fill="#E53267"/>
<path d="M1.45839 10.2844C1.51394 10.7176 1.71387 11.1195 2.02589 11.4251C2.33791 11.7307 2.74383 11.9223 3.1781 11.9688C4.41218 12.0988 5.68989 12.2344 7.0001 12.2344C8.30939 12.2344 9.58803 12.0979 10.8221 11.9688C11.2565 11.9226 11.6626 11.7311 11.9747 11.4254C12.2868 11.1198 12.4866 10.7177 12.5418 10.2844C12.6737 9.2221 12.8037 8.12453 12.8037 7.00003C12.8037 5.87646 12.6737 4.77796 12.5418 3.71567C12.4865 3.28229 12.2866 2.88022 11.9746 2.57441C11.6625 2.2686 11.2565 2.07692 10.8221 2.03032C9.58803 1.90217 8.30939 1.7666 7.0001 1.7666C5.69082 1.7666 4.41218 1.9031 3.1781 2.03217C2.74371 2.07841 2.33762 2.26986 2.02553 2.57554C1.71345 2.88122 1.51363 3.28326 1.45839 3.7166C1.32653 4.77796 1.19653 5.87646 1.19653 7.00003C1.19653 8.1236 1.32653 9.2221 1.45839 10.2844Z" stroke="#E53267" stroke-linecap="round" stroke-linejoin="round"/>
<path d="M1.48438 3.4751L5.85052 6.91824C6.17808 7.17641 6.58302 7.3168 7.00009 7.3168C7.41716 7.3168 7.8221 7.17641 8.14966 6.91824L12.5158 3.4751" stroke="#E53267" stroke-linecap="round" stroke-linejoin="round"/>
</svg>
