<svg width="14" height="14" viewBox="0 0 14 14" fill="none" xmlns="http://www.w3.org/2000/svg">
<path d="M9.65295 4.45565C9.80177 4.32161 9.97719 4.22048 10.1678 4.15887C10.3583 4.09726 10.5598 4.07656 10.7589 4.09812C10.958 4.11968 11.1503 4.18301 11.3233 4.28398C11.4963 4.38496 11.646 4.52129 11.7627 4.68408C11.8397 4.78808 11.9317 4.9088 12.0505 5.0583C12.4191 5.52276 12.6194 6.09843 12.6187 6.69137C12.6181 7.28432 12.4165 7.85953 12.0468 8.32315C11.4841 9.01958 10.8954 9.72437 10.2361 10.3827C9.57681 11.042 8.87295 11.6317 8.17467 12.1944C7.71116 12.5638 7.13621 12.7653 6.54351 12.7661C5.95081 12.767 5.3753 12.5671 4.91074 12.199C4.74359 12.0644 4.61081 11.965 4.49938 11.8833C3.82895 11.3939 3.71474 10.4756 4.25795 9.84694C4.50588 9.56094 4.76867 9.28422 5.02681 9.01122C5.38338 8.63608 5.99624 8.59337 6.38809 8.93415C6.45681 8.99358 6.54409 9.07344 6.66481 9.1858C7.74845 8.54137 8.40588 7.87651 9.03824 6.81237C8.95152 6.72036 8.86639 6.62687 8.78288 6.53194C8.62081 6.33839 8.5388 6.09023 8.55365 5.83823C8.56849 5.58622 8.67906 5.34941 8.86274 5.17622C9.12274 4.93387 9.38459 4.68965 9.65295 4.45565Z" fill="#E53267"/>
<path d="M9.65295 4.45565C9.80177 4.32161 9.97719 4.22048 10.1678 4.15887C10.3583 4.09726 10.5598 4.07656 10.7589 4.09812C10.958 4.11968 11.1503 4.18301 11.3233 4.28398C11.4963 4.38496 11.646 4.52129 11.7627 4.68408C11.8397 4.78808 11.9317 4.9088 12.0505 5.0583C12.4191 5.52276 12.6194 6.09843 12.6187 6.69137C12.6181 7.28432 12.4165 7.85953 12.0468 8.32315C11.4841 9.01958 10.8954 9.72437 10.2361 10.3827C9.57681 11.042 8.87295 11.6317 8.17467 12.1944C7.71116 12.5638 7.13621 12.7653 6.54351 12.7661C5.95081 12.767 5.3753 12.5671 4.91074 12.199C4.74359 12.0644 4.61081 11.965 4.49938 11.8833C3.82895 11.3939 3.71474 10.4756 4.25795 9.84694C4.50588 9.56094 4.76867 9.28422 5.02681 9.01122C5.38338 8.63608 5.99624 8.59337 6.38809 8.93415C6.45681 8.99358 6.54409 9.07344 6.66481 9.1858C7.74845 8.54137 8.40588 7.87651 9.03824 6.81237C8.95152 6.72036 8.86639 6.62687 8.78288 6.53194C8.62081 6.33839 8.5388 6.09023 8.55365 5.83823C8.56849 5.58622 8.67906 5.34941 8.86274 5.17622C9.12274 4.93387 9.38459 4.68965 9.65295 4.45565Z" stroke="#E53267" stroke-linecap="round" stroke-linejoin="round"/>
<path d="M4.13062 6.35553C4.23709 5.8203 4.52588 5.33855 4.94776 4.99239C5.38545 4.63128 5.93864 4.44007 6.5059 4.45382" stroke="#E53267" stroke-linecap="round" stroke-linejoin="round"/>
<path d="M1.26416 5.88201C1.50457 4.67439 2.15631 3.58751 3.1083 2.80658C4.09599 1.99132 5.34448 1.55944 6.6248 1.59016" stroke="#E53267" stroke-linecap="round" stroke-linejoin="round"/>
</svg>
