<svg width="14" height="14" viewBox="0 0 14 14" fill="none" xmlns="http://www.w3.org/2000/svg">
<path d="M6.40023 2.13905C6.33783 1.96927 6.22678 1.82165 6.08095 1.71463C5.93512 1.60761 5.76098 1.54594 5.5803 1.53733C4.51104 1.47829 3.43906 1.48883 2.37116 1.56891C2.15442 1.58583 1.95042 1.67797 1.79442 1.82939C1.63842 1.98081 1.54025 2.18198 1.51688 2.39812C1.20395 5.12441 1.09995 7.86091 1.42588 10.5937C1.5373 11.5204 2.29688 12.1945 3.20502 12.293C5.75022 12.5708 8.31822 12.5686 10.8629 12.2865C11.2973 12.2382 11.7027 12.0448 12.0136 11.7376C12.3244 11.4305 12.5226 11.0274 12.5762 10.5937C12.7786 8.90369 12.8315 7.17283 12.7062 5.05012C12.6817 4.62433 12.5042 4.2217 12.2065 3.91631C11.9088 3.61091 11.5108 3.4233 11.0858 3.38798C9.8378 3.28583 8.96959 3.28026 7.43652 3.24776C7.25059 3.24388 7.07014 3.18416 6.91861 3.07635C6.76708 2.96854 6.65149 2.81764 6.58688 2.64326L6.40116 2.13998L6.40023 2.13905Z" fill="#E53267"/>
<path d="M9.32426 12.422V12.3895C8.42633 10.6475 7.10683 8.88882 5.55426 7.69096C4.98318 7.25082 4.19111 7.28611 3.62283 7.72811C2.75461 8.40596 2.18911 9.00303 1.49361 9.96503L1.37476 10.1275C1.39054 10.2826 1.40818 10.4386 1.42676 10.5937C1.53726 11.5204 2.29683 12.1945 3.20497 12.293C5.25618 12.5167 7.28326 12.5576 9.32426 12.422Z" fill="white"/>
<path d="M6.40023 2.13905C6.33783 1.96927 6.22678 1.82165 6.08095 1.71463C5.93512 1.60761 5.76098 1.54594 5.5803 1.53733C4.51104 1.47829 3.43906 1.48883 2.37116 1.56891C2.15442 1.58583 1.95042 1.67797 1.79442 1.82939C1.63842 1.98081 1.54025 2.18198 1.51688 2.39812C1.20395 5.12441 1.09995 7.86091 1.42588 10.5937C1.5373 11.5204 2.29688 12.1945 3.20502 12.293C5.75022 12.5708 8.31822 12.5686 10.8629 12.2865C11.2973 12.2382 11.7027 12.0448 12.0136 11.7376C12.3244 11.4305 12.5226 11.0274 12.5762 10.5937C12.7786 8.90369 12.8315 7.17283 12.7062 5.05012C12.6817 4.62433 12.5042 4.2217 12.2065 3.91631C11.9088 3.61091 11.5108 3.4233 11.0858 3.38798C9.8378 3.28583 8.96959 3.28026 7.43652 3.24776C7.25059 3.24388 7.07014 3.18416 6.91861 3.07635C6.76708 2.96854 6.65149 2.81764 6.58688 2.64326L6.40116 2.13998L6.40023 2.13905Z" stroke="#E53267" stroke-linejoin="round"/>
<path d="M1.49365 9.96493C2.19008 9.00293 2.75465 8.40586 3.62287 7.72893C4.19115 7.286 4.98322 7.25072 5.55337 7.69086C7.10687 8.88872 8.42637 10.6474 9.3243 12.3894" stroke="#E53267" stroke-linecap="round" stroke-linejoin="round"/>
<path d="M9.40875 7.94445C10.1795 7.94445 10.6122 7.51081 10.6122 6.74103C10.6122 5.97031 10.1795 5.5376 9.40875 5.5376C8.63804 5.5376 8.20532 5.97031 8.20532 6.74103C8.20532 7.51174 8.63897 7.94445 9.40875 7.94445Z" fill="white"/>
<path d="M9.40875 7.94445C10.1795 7.94445 10.6122 7.51081 10.6122 6.74103C10.6122 5.97031 10.1795 5.5376 9.40875 5.5376C8.63804 5.5376 8.20532 5.97031 8.20532 6.74103C8.20532 7.51174 8.63897 7.94445 9.40875 7.94445Z" stroke="#E53267" stroke-linecap="round" stroke-linejoin="round"/>
</svg>
