<svg width="14" height="14" viewBox="0 0 14 14" fill="none" xmlns="http://www.w3.org/2000/svg">
<g clip-path="url(#clip0_2339_116)">
<path d="M4.03613 5.22272C5.08728 4.28858 5.73913 3.97287 7.00013 3.74072C8.26113 3.97379 8.91299 4.28858 9.96413 5.22272L7.00013 6.70472L4.03613 5.22272Z" fill="white"/>
<path d="M4.03613 5.22272C5.08728 4.28858 5.73913 3.97287 7.00013 3.74072C8.26113 3.97379 8.91299 4.28858 9.96413 5.22272" stroke="#E53267" stroke-linecap="round" stroke-linejoin="round"/>
<path d="M4.03618 5.22266C3.67125 6.22551 3.66754 7.42151 3.95725 8.42901C4.0059 8.59422 4.10293 8.74106 4.23582 8.85058C5.15325 9.61573 5.78004 9.89708 6.80425 10.1209C6.93338 10.1487 7.06698 10.1487 7.19611 10.1209C8.21939 9.89708 8.84711 9.61573 9.76361 8.85058C9.89685 8.74118 9.99421 8.59433 10.0431 8.42901C10.3328 7.42151 10.3291 6.22551 9.96418 5.22266L7.00018 6.70466L4.03618 5.22266Z" fill="#E53267"/>
<path d="M4.03618 5.22266C3.67125 6.22551 3.66754 7.42151 3.95725 8.42901C4.0059 8.59422 4.10293 8.74106 4.23582 8.85058C5.15325 9.61573 5.78004 9.89708 6.80425 10.1209C6.93338 10.1487 7.06698 10.1487 7.19611 10.1209C8.21939 9.89708 8.84711 9.61573 9.76361 8.85058C9.89685 8.74118 9.99421 8.59433 10.0431 8.42901C10.3328 7.42151 10.3291 6.22551 9.96418 5.22266L7.00018 6.70466L4.03618 5.22266Z" stroke="#E53267" stroke-linecap="round" stroke-linejoin="round"/>
<path d="M7 6.69727V10.1618" stroke="#E53267" stroke-linecap="round" stroke-linejoin="round"/>
<path d="M1.19653 6.99991C1.19603 5.70791 1.62667 4.45268 2.42022 3.4331C3.21378 2.41352 4.32486 1.68789 5.57744 1.37117C6.83002 1.05445 8.15247 1.16476 9.33527 1.68462C10.5181 2.20448 11.4936 3.10416 12.1072 4.24112C12.1778 3.21784 12.1565 2.63284 12.0144 1.57148" stroke="#E53267" stroke-linecap="round" stroke-linejoin="round"/>
<path d="M12.8036 7C12.804 8.2893 12.3751 9.54203 11.5845 10.5605C10.7939 11.579 9.68673 12.3052 8.43761 12.6245C7.18849 12.9439 5.86859 12.8382 4.68619 12.3242C3.5038 11.8101 2.52624 10.917 1.90778 9.78571C1.83721 10.8081 1.85764 11.394 2.00064 12.4554" stroke="#E53267" stroke-linecap="round" stroke-linejoin="round"/>
</g>
<defs>
<clipPath id="clip0_2339_116">
<rect width="14" height="14" fill="white"/>
</clipPath>
</defs>
</svg>
