<svg width="14" height="14" viewBox="0 0 14 14" fill="none" xmlns="http://www.w3.org/2000/svg">
<path fill-rule="evenodd" clip-rule="evenodd" d="M8.91568 11.1108L8.90918 11.1433C9.25368 11.316 9.46261 11.5546 9.58704 11.8137C9.80989 12.2752 10.1795 12.7172 10.692 12.7172H10.913C11.3309 12.7172 11.7051 12.4386 11.7729 12.0254C12.1573 9.67985 11.1508 7.7735 9.95661 7.22192C9.76718 8.74478 9.28989 10.1915 8.91568 11.1108Z" fill="#E53267"/>
<path fill-rule="evenodd" clip-rule="evenodd" d="M4.55308 7.23291C3.36915 7.79841 2.37836 9.69455 2.76093 12.0253C2.82779 12.4376 3.20201 12.7171 3.61986 12.7171H3.84086C4.35343 12.7171 4.72301 12.2751 4.94586 11.8136C5.08631 11.5242 5.32021 11.2906 5.60979 11.1506C5.23279 10.2359 4.74622 8.77341 4.55308 7.23291Z" fill="#E53267"/>
<path d="M5.60977 11.1507C5.01549 9.70678 4.14634 6.89413 4.5902 4.57178H9.91834C10.3622 6.89413 9.49399 9.70678 8.89877 11.1507H5.60977Z" fill="white"/>
<path d="M7.25439 8.07422V12.7171" stroke="#E53267" stroke-linecap="round" stroke-linejoin="round"/>
<path d="M9.91847 4.57264H4.59033C4.8624 3.14636 5.62847 1.90764 7.2544 1.28271C8.8794 1.90764 9.6464 3.14729 9.91847 4.57264Z" fill="#E53267"/>
<path d="M5.60977 11.1507C5.01549 9.70678 4.14634 6.89413 4.5902 4.57178H9.91834C10.3622 6.89413 9.49399 9.70678 8.89877 11.1507H5.60977Z" stroke="#E53267" stroke-linecap="round" stroke-linejoin="round"/>
<path d="M9.91847 4.57264H4.59033C4.8624 3.14636 5.62847 1.90764 7.2544 1.28271C8.8794 1.90764 9.6464 3.14729 9.91847 4.57264Z" stroke="#E53267" stroke-linecap="round" stroke-linejoin="round"/>
<path d="M5.6247 11.1431C5.32867 11.2828 5.08919 11.5193 4.94592 11.8136C4.72306 12.2751 4.35349 12.7171 3.84092 12.7171H3.61992C3.20206 12.7171 2.82784 12.4385 2.76099 12.0253C2.37749 9.69456 3.3692 7.79749 4.55406 7.23292M8.90906 11.1431C9.25356 11.3158 9.46249 11.5545 9.58692 11.8136C9.80977 12.2751 10.1793 12.7171 10.6919 12.7171H10.9129C11.3308 12.7171 11.705 12.4385 11.7728 12.0253C12.1572 9.68156 11.1525 7.77613 9.95927 7.22363" stroke="#E53267" stroke-linecap="round" stroke-linejoin="round"/>
</svg>
